<?xml version="1.0" encoding="UTF-8" standalone="no"?><!DOCTYPE svg PUBLIC "-//W3C//DTD SVG 1.1//EN" "http://www.w3.org/Graphics/SVG/1.1/DTD/svg11.dtd"><svg width="100%" height="100%" viewBox="0 0 7084 7084" version="1.1" xmlns="http://www.w3.org/2000/svg" xmlns:xlink="http://www.w3.org/1999/xlink" xml:space="preserve" xmlns:serif="http://www.serif.com/" style="fill-rule:evenodd;clip-rule:evenodd;stroke-linejoin:round;stroke-miterlimit:2;"><g><path d="M3541.72,828.333c-1498.59,0 -2713.31,1214.84 -2713.31,2713.26c0,1498.57 1214.72,2713.4 2713.31,2713.4c1498.49,0 2713.21,-1214.84 2713.21,-2713.4c0,-1498.42 -1214.72,-2713.26 -2713.21,-2713.26" style="fill:#e5b250;"/><path d="M3541.72,6092.12c-1408.62,0 -2550.54,-1141.93 -2550.54,-2550.52c0,-1408.55 1141.92,-2550.49 2550.54,-2550.49c1408.5,-0 2550.54,1141.94 2550.54,2550.49c0,1408.59 -1142.04,2550.52 -2550.54,2550.52" style="fill:#005aaa;"/><path d="M3541.72,1246.21c-1267.82,-0 -2295.5,1027.68 -2295.5,2295.38c-0,1267.69 1027.67,2295.48 2295.5,2295.48c1267.7,0 2295.4,-1027.79 2295.4,-2295.48c-0,-1267.7 -1027.7,-2295.38 -2295.4,-2295.38" style="fill:#e5b250;"/><path d="M3541.72,5699.32c-1191.66,-0 -2157.75,-965.992 -2157.75,-2157.72c-0,-1191.59 966.087,-2157.69 2157.75,-2157.69c1191.65,-0 2157.64,966.104 2157.64,2157.69c0,1191.73 -965.991,2157.72 -2157.64,2157.72" style="fill:#005aaa;"/><path d="M2847.53,2785.39c0,0 44.609,-124.633 179.534,-124.633c-124.58,-114.25 -321.855,-290.683 -321.855,-529.517c0,-242.362 132.092,-400.841 259.513,-446.383c97.592,-34.817 288.337,23.779 385.279,58.321c96.95,34.662 116.104,-103.742 159.729,-149.225c40.038,-41.346 212.725,-31.008 202.596,51.733c-4.787,39.171 -74.304,1.584 -102.812,34.55c-26.234,30.359 1.737,57.45 35.687,73.171c291.383,-107.337 407.692,-66.908 451.213,-58.204c103.804,20.775 259.516,166.142 249.17,363.467c-8.487,160.925 -186.816,477.495 -311.408,591.691c72.583,20.721 124.592,51.625 186.833,155.429c31.121,-114.25 176.484,-400.354 256.455,-456.825c176.383,-124.583 381.133,-119.204 529.45,-41.566c165.487,86.779 205.429,317.175 228.712,459.496c3.483,21.6 53.846,26.112 129.15,29.433c119.467,5.167 123.6,123.658 127.513,133.992c4.687,12.516 6.216,65.229 -35.35,67.837c-41.563,2.563 -41.896,-61.367 -78.892,-72.95c-39.054,-12.237 -63.425,40.208 -39.054,75.296c83.45,119.687 194.425,266.025 197.371,365.908c10.337,353.054 -290.625,435.963 -560.571,425.638c-269.954,-10.346 -353.067,-20.796 -498.329,-62.354c-41.571,62.354 -31.121,83.462 -103.909,145.695c155.813,31.117 529.559,124.575 623.017,259.609c93.35,134.921 228.271,363.308 166.037,508.666c-39.387,91.838 -219.679,196.184 -365.37,273.546c-25.784,13.713 -52.23,51.359 -28.95,136.988c23.408,85.625 -14.03,109.462 -34.917,127.629c-20.671,18.171 -118.817,79.758 -144.279,22.417c-20.771,-46.571 78.996,-50.488 52.129,-106.525c-15.233,-31.992 -57.788,-49.071 -85.092,-11.534c-74.754,102.713 -174.737,297.375 -379.733,315.325c-241.45,21.321 -394.533,-93.358 -436.096,-238.721c-41.471,-145.37 -72.687,-446.433 -62.237,-560.683c-72.688,31.117 -93.475,41.558 -197.28,0c10.35,83.129 14.363,360.367 -93.454,529.563c-116.104,182.137 -281.275,335.558 -436.096,290.625c-205.55,-59.738 -318.925,-203.58 -391.275,-316.959c-49.733,-78.012 -76.383,-49.396 -158.204,-23.387c-66.591,20.996 -131.437,42.758 -192.704,-77.475c-29.596,-57.992 -0.871,-97.6 87.258,-32.746c42,30.9 86.613,-42.329 6.65,-77.696c-146.354,-64.737 -352.216,-144.708 -400.308,-323.046c-47.104,-175.283 135.038,-446.437 353.083,-498.333c217.934,-51.796 373.646,-103.808 508.667,-145.367c-51.892,-72.566 -72.683,-103.8 -103.8,-186.816c-83.017,51.895 -353.408,171.579 -498.342,186.816c-197.258,20.792 -503.875,-73.221 -539.779,-321.737c-28.846,-198.884 62.554,-337.063 138.4,-473.229c27.421,-49.342 -23.066,-102.992 -73.554,-152.334c-43.304,-42.266 -63.004,-92.912 -18.179,-181.696c81.071,-101.25 111.204,-17.845 81.287,51.842c-12.733,29.863 90.846,67.896 79.75,-64.742c-23.066,-276.262 32.321,-369.945 124.475,-415.316c178.88,-88.184 415.205,-103.854 581.363,93.466c115.554,137.205 233.5,199.392 311.508,321.85" style="fill:#e5b250;"/><path d="M4793.87,3889.76c-1.521,-63.875 394.321,-27.75 446.208,2.5c106.096,61.7 179.1,226.529 110.988,347.638c-44.396,78.987 -81.392,2.5 -73.992,-41.892c7.517,-44.833 -31.991,-115.992 -133.066,-105.983c-101.188,9.912 -170.175,-64.192 -147.971,-123.267c22.191,-59.188 -76.5,-44.392 -110.988,-47.004c-34.496,-2.392 -89.991,22.296 -91.179,-31.992" style="fill:#00a650;"/><path d="M3600.69,4900.9c-60.063,-21.979 -153.3,364.388 -141.45,423.259c24.275,120.229 156.9,242.529 293.458,217.066c89.008,-16.537 28.509,-76.166 -15.883,-83.458c-44.829,-7.396 -99.35,-67.779 -57.45,-160.267c41.883,-92.596 -5.875,-181.708 -69.1,-179.754c-63.113,1.963 -17.296,-86.604 -8.588,-120.117c8.809,-33.512 50.05,-78.02 -0.987,-96.729" style="fill:#00a650;"/><path d="M2210.58,3982.56c31.55,55.713 -334.263,210.863 -394.417,208.796c-122.517,-4.021 -264.958,-114.892 -262.125,-253.842c1.742,-90.525 70.508,-40.575 84.983,1.955c14.579,43.091 83.013,87.054 167.342,30.583c84.442,-56.575 180.292,-24.046 188.675,38.625c8.487,62.671 88.354,2.946 120.004,-11.2c31.558,-14.142 68.767,-62.142 95.538,-14.917" style="fill:#00a650;"/><path d="M2685.09,2445.97c-42.983,47.383 -305.208,-251.125 -322.183,-308.855c-34.488,-117.666 26.012,-287.625 158.754,-328.654c86.492,-26.708 60.721,54.188 24.808,81.288c-36.241,27.471 -56.358,106.196 23.605,168.591c80.204,62.396 79.429,163.588 22.633,191.225c-56.8,27.755 24.925,84.821 48.208,110.33c23.388,25.579 80.617,45.866 44.175,86.075" style="fill:#00a650;"/><path d="M4314.36,2344.35c29.046,57.013 360.471,-162.125 392.021,-213.379c64.2,-104.504 50.487,-284.304 -66.804,-358.729c-76.484,-48.529 -72.9,36.283 -45.363,71.862c27.858,36.017 26.646,117.296 -67.146,156.413c-93.671,39.171 -119.466,136.979 -71.908,178.662c47.533,41.563 -46.354,75.238 -75.633,93.792c-29.159,18.5 -89.755,22.95 -65.167,71.379" style="fill:#00a650;"/><path d="M2962.98,3982.9c0,0 -172.687,-127.304 -219.575,-392.912c-166.158,65.283 -577.016,278.55 -807.133,173.779c-190.625,-86.834 -215.871,-219.609 -157.767,-365.629c58.1,-146.017 123.05,-221.092 153.3,-341.975c30.246,-120.888 17.959,-412.925 38.2,-493.492c20.238,-80.517 156.25,-153.417 277.121,-123.121c120.779,30.308 600.4,532.671 600.4,532.671c0,-0 96.404,-238.833 418.367,-218c-103.913,-145.417 -498.329,-446.425 -415.325,-685.267c83.033,-238.725 145.371,-280.287 301.079,-259.496c155.817,20.771 259.5,83.071 384.092,83.071c124.571,0 404.975,-83.071 487.991,-83.071c83.025,0 186.829,114.188 186.829,238.771c0.001,124.588 -207.604,529.459 -373.758,674.871l21.758,14.579c0.001,0 282.246,35.967 406.938,275.338c89.338,-154.659 179.529,-596.909 431.192,-620.134c251.783,-23.187 315.325,16.417 360.921,166.742c45.483,150.371 31.779,270.663 83.233,384.088c51.571,113.425 243.191,334.254 277.575,409.816c34.383,75.625 -28.942,212.525 -140.146,269.004c-237.85,120.775 -869.371,-36.029 -869.371,-36.029c0,0 -19.146,124.596 -215.1,344.388c170.492,52.879 708.317,178.325 786.659,418.683c78.458,240.35 54.087,311.075 -82.48,388.875c-136.537,77.688 -256.883,90.958 -356.108,166.367c-99.121,75.291 -272.025,311.075 -338.179,361.341c-66.033,50.271 -217.929,22.309 -293.225,-76.92c-75.409,-99.13 -168.983,-533.267 -124.808,-749.575l11.312,-74.855c0,0 -240.025,263.85 -450.458,8.596c-7.063,178.546 47.341,647.834 -164.734,785.588c-211.954,137.637 -286.695,132.308 -397.029,20.45c-110.229,-111.963 -154.071,-224.796 -252.433,-301.171c-98.479,-76.5 -370.813,-182.692 -436.433,-233.613c-65.605,-51.033 -77.571,-204.883 -1.084,-303.245c76.275,-98.363 644.35,-332.396 864.696,-345.45l3.483,-13.063Z" style="fill:#fff;"/><path d="M3558.69,2650.37c25.792,-0 46.684,-20.942 46.684,-46.679l-0,-571.017c-0,-25.837 -20.892,-46.729 -46.684,-46.729c-25.895,-0 -46.787,20.892 -46.787,46.729l-0,571.017c-0,25.737 20.892,46.679 46.787,46.679" style="fill:#e5b250;"/><path d="M3355.55,2575.89c20.896,-6.15 32.53,-27.15 26,-46.846l-144.816,-435.987c-6.429,-19.696 -28.725,-30.684 -49.617,-24.484c-21.004,6.096 -32.642,27.096 -26.108,46.788l144.808,435.991c6.529,19.692 28.842,30.734 49.733,24.538" style="fill:#e5b250;"/><path d="M3737.25,2586.28c-20.892,-6.154 -32.546,-27.091 -26.013,-46.787l144.713,-435.988c6.529,-19.754 28.946,-30.796 49.833,-24.591c20.892,6.2 32.542,27.091 26.013,46.837l-144.713,435.938c-6.525,19.745 -28.841,30.791 -49.833,24.591" style="fill:#e5b250;"/><path d="M4400.42,3188.36c7.733,24.7 33.85,38.35 58.541,30.734l545.338,-169.188c24.591,-7.675 38.4,-33.896 30.679,-58.487c-7.608,-24.642 -33.846,-38.459 -58.429,-30.784l-545.329,169.296c-24.709,7.617 -38.521,33.729 -30.8,58.429" style="fill:#e5b250;"/><path d="M4411.42,2972.32c11.971,18.18 35.475,23.125 52.442,11l373.525,-267.5c16.758,-12.137 20.679,-36.62 8.587,-54.837c-12.071,-18.179 -35.571,-23.021 -52.442,-11l-373.525,267.508c-16.854,12.125 -20.779,36.667 -8.587,54.829" style="fill:#e5b250;"/><path d="M4514.57,3339.99c-0.333,-21.763 16.317,-39.171 36.996,-38.738l459.367,9.025c20.671,0.384 37.858,18.446 38.2,40.259c0.317,21.762 -16.229,39.171 -36.996,38.683l-459.383,-8.971c-20.679,-0.387 -37.867,-18.396 -38.184,-40.258" style="fill:#e5b250;"/><path d="M2694.88,3244.34c5.442,-25.246 -10.779,-50.05 -36.025,-55.375l-558.395,-118.983c-25.246,-5.492 -50.05,10.662 -55.492,35.904c-5.325,25.191 10.779,50.054 36.025,55.441l558.496,119.038c25.141,5.321 50.05,-10.779 55.391,-36.025" style="fill:#e5b250;"/><path d="M2579.76,3427.47c-1.646,-21.713 -19.804,-37.596 -40.375,-35.255l-456.654,50.759c-20.68,2.283 -36.03,21.758 -34.384,43.566c1.738,21.713 19.688,37.488 40.475,35.205l456.554,-50.705c20.559,-2.341 35.905,-21.762 34.384,-43.57" style="fill:#e5b250;"/><path d="M2669.42,3056.22c-10.341,19.2 -33.295,26.271 -51.258,15.717l-396.275,-232.413c-17.842,-10.491 -23.933,-34.6 -13.592,-53.75c10.446,-19.2 33.292,-26.212 51.238,-15.766l396.396,232.462c17.846,10.546 23.933,34.6 13.491,53.75" style="fill:#e5b250;"/><path d="M3080.71,4208.56c-20.354,-15.887 -49.733,-12.191 -65.617,8.163l-351.229,450.025c-15.987,20.346 -12.404,49.721 7.95,65.608c20.338,15.883 49.717,12.296 65.6,-7.942l351.35,-450.245c15.888,-20.238 12.288,-49.721 -8.054,-65.609" style="fill:#e5b250;"/><path d="M3194.96,4392.33c-20.355,-8.05 -42.334,1.308 -49.3,20.891l-154.288,432.73c-6.846,19.579 3.917,41.991 24.158,50.05c20.355,7.941 42.334,-1.417 49.396,-21.005l154.188,-432.725c6.966,-19.587 -3.917,-41.883 -24.154,-49.941" style="fill:#e5b250;"/><path d="M2900.41,4149.15c12.738,17.734 9.038,41.454 -8.271,52.988l-382.346,254.604c-17.291,11.542 -41.666,6.537 -54.408,-11.204c-12.721,-17.734 -9.021,-41.454 8.275,-53.092l382.463,-254.5c17.291,-11.542 41.562,-6.537 54.287,11.204" style="fill:#e5b250;"/><path d="M4040.17,4204.42c-20.025,16.429 -22.755,45.917 -6.317,65.829l364.292,439.688c16.537,19.916 45.916,22.633 65.716,6.204c20.017,-16.433 22.738,-45.917 6.192,-65.829l-364.283,-439.796c-16.421,-19.808 -45.8,-22.525 -65.6,-6.096" style="fill:#e5b250;"/><path d="M4243.96,4132.28c-12.188,18.067 -7.717,41.675 9.912,52.554l389.625,243.517c17.513,10.983 41.667,5.217 53.854,-12.842c12.184,-18.175 7.83,-41.783 -9.675,-52.662l-389.745,-243.513c-17.625,-10.987 -41.784,-5.216 -53.971,12.946" style="fill:#e5b250;"/><path d="M3943.33,4367.74c20.125,-8.6 42.438,0.104 50.054,19.475l166.696,428.041c7.396,19.371 -2.737,42.109 -22.754,50.709c-20.021,8.596 -42.433,-0.113 -50.05,-19.484l-166.579,-428.041c-7.509,-19.475 2.612,-42.104 22.633,-50.7" style="fill:#e5b250;"/><path d="M4181.5,3042.29c-127.737,-158.254 -198.025,-149.391 -309.766,-151.408c-91.075,-1.625 -320.875,115.117 -320.875,115.117c-0,-0 -179.1,-116.859 -308.896,-109.075c-129.7,7.833 -261.575,77.037 -345.138,228.437c-83.125,150.479 -101.308,352.967 2.613,539.821c123.604,222.625 288.121,402.254 404.862,508.775c116.754,106.412 246.559,199.771 246.559,199.771c-0,-0 88.245,-59.734 199.883,-142.759c107.504,-79.97 369.508,-363.62 449.042,-552.725c88.245,-210.3 98.795,-490.975 -18.284,-635.954" style="fill:#e5b250;"/><path d="M3958.35,3836.54c-49.296,72.583 -342.638,334.8 -342.638,334.8l0,-563.179l312.275,-0l0,-124.671l-312.275,-0l0,-246.558l-124.575,-0l0,246.558l-309.571,-0l0,124.671l309.571,-0l0,560.566c-62.237,-41.562 -306.183,-301.066 -417.937,-451.654c-111.521,-150.471 -129.7,-373.725 -80.3,-493.079c49.183,-119.421 189.441,-158.325 298.466,-166.158c108.909,-7.834 264.717,116.758 264.717,116.758c-0,0 173.004,-140.962 352.971,-127.087c110.666,8.541 202.379,67.404 228.396,303.675c25.995,236.091 -134.05,418.983 -179.1,485.358" style="fill:#ed1c24;"/></g></svg>